<svg width="50" height="50" viewBox="0 0 50 50" fill="none" xmlns="http://www.w3.org/2000/svg">
<path d="M3.92288 1C2.31267 1 1 2.26749 1 3.82229V46.1777C1 47.7325 2.31267 49 3.92288 49H46.0771C47.6873 49 49 47.7325 49 46.1777V3.82229C49 2.26749 47.6873 1 46.0771 1H3.92288Z" fill="white" stroke="#323637"/>
<mask id="mask0_10505_1351" style="mask-type:luminance" maskUnits="userSpaceOnUse" x="1" y="1" width="48" height="48">
<path d="M3.59111 1C2.16 1 1 2.11947 1 3.50058V46.4994C1 47.8805 2.16 49 3.59111 49H46.4089C47.84 49 49 47.8805 49 46.4994V3.50058C49 2.11947 47.84 1 46.4089 1H3.59111Z" fill="white"/>
</mask>
<g mask="url(#mask0_10505_1351)">
<path d="M22.0431 40.9388C21.8415 41.0589 21.7257 41.2005 21.6742 41.372C20.8636 43.9412 17.9126 45.6612 15.6694 46.6305C15.1761 46.845 13.7907 47.068 13.7307 47.0766C13.6063 47.0981 13.3532 47.2825 13.3532 47.5055C13.3532 47.6514 13.6749 48.2175 13.8636 48.5778C14.1381 49.0925 14.4127 49.6801 14.7858 50.2334C15.0517 50.6237 16.0983 51.6531 16.7374 51.5974C17.6338 51.5159 19.8599 50.019 19.9971 49.916C20.7177 49.3756 21.5455 48.2175 21.983 47.497C22.309 46.9522 22.8923 45.7384 22.8923 45.0607C22.8923 44.9149 22.6007 42.4786 22.339 41.2562C22.2876 41.016 22.2232 41.0032 22.0388 40.9388H22.0431ZM15.2962 34.4322C15.2962 33.836 15.056 33.6515 14.4255 33.4071C14.4727 33.9646 14.5285 34.1362 14.5327 34.4021C14.5327 34.548 14.2968 34.8053 14.3011 34.9554C14.3011 34.9554 14.2282 35.1442 14.2968 35.2214C14.3526 35.2857 14.3569 35.2857 14.5027 35.2857C14.9274 35.2857 15.2962 34.904 15.2962 34.4322ZM17.4451 26.6859C17.2306 26.6859 17.0591 27.0377 17.0634 27.1578C17.0719 27.3979 17.2607 27.7454 17.5352 27.7454C17.681 27.7454 18.0155 27.4794 18.007 27.2435C17.9984 27.0076 17.7882 26.6859 17.4494 26.6859H17.4451ZM25.0712 22.7399C24.0547 22.7399 23.3041 24.8459 23.3041 25.5064C23.3041 25.8839 23.4757 26.5358 23.7158 27.0548C23.9303 27.518 24.222 28.0327 24.5651 28.4402C25.3843 29.4139 26.7097 29.98 27.6361 29.98C27.8806 29.98 29.8451 29.6583 29.8451 28.7748C29.8451 28.2215 29.6864 27.7539 29.1845 27.102C28.5283 26.8489 28.2624 27.8269 27.7391 28.1357C27.4131 28.3201 26.9627 28.4617 26.8169 28.4617C26.6711 28.4617 26.3665 28.4273 26.1735 28.3416C25.2685 27.9255 24.7238 27.2907 24.7238 26.4758C24.7238 25.7338 25.2857 24.6486 26.3451 24.5414C26.4395 24.5328 26.6067 24.314 26.6067 24.151C26.6067 23.5634 25.6631 22.7356 25.0755 22.7356L25.0712 22.7399ZM18.0327 24.743C17.8869 24.743 17.5909 24.8588 17.4451 24.8588C17.4236 24.8588 16.7074 24.9703 16.7074 25.2405C16.7074 25.7724 15.5879 25.5922 15.5879 26.2999C15.5879 26.4458 15.7037 26.6259 15.8538 26.6259C16.0297 26.6259 16.8274 26.1541 17.4451 26.1541C17.7968 26.1541 18.4144 26.45 18.5045 26.45C18.6503 26.45 18.6418 26.3814 18.7104 26.3085C18.6503 26.1712 18.5946 26.1284 18.5946 25.9782C18.5946 25.8281 18.6461 25.9096 18.6932 25.8581H18.8519C19.1951 26.1455 19.4867 26.4972 19.7527 26.7417C19.8899 26.4886 19.9542 26.2141 19.9542 26.064C19.9542 25.4164 19.0149 24.9317 18.5131 24.8716C18.3201 24.8502 18.1871 24.7387 18.037 24.7387L18.0327 24.743ZM-5.33035 29.5768C-5.55339 30.0615 -5.75498 30.7735 -5.75498 31.2796C-5.75498 31.7214 -5.28317 32.6951 -4.57546 32.6951C-4.42963 32.6951 -4.10794 32.6479 -3.88491 32.5535C-3.70047 32.4806 -3.50746 32.3819 -3.4131 32.3176C-3.19864 32.1718 -1.96765 30.6534 -1.92905 30.4776C-1.88187 30.2846 -1.92905 30.173 -1.92905 30.173C-2.18211 30.1044 -2.45661 29.9243 -2.60245 29.9243C-2.69252 29.9243 -3.26727 30.9837 -3.9278 30.9837C-4.07363 30.9837 -4.18944 30.9236 -4.30095 30.9065C-4.76847 30.6062 -4.53686 29.9672 -4.76847 29.6498C-4.96148 29.5597 -5.16736 29.5725 -5.33035 29.5768ZM3.51819 39.2918C3.45385 39.6521 2.95631 40.8874 2.95631 41.0246C2.95631 41.1704 2.42445 42.9376 2.42445 43.0877C2.42445 43.2378 2.3644 43.6195 2.3644 43.7654C2.3644 44.5546 3.3552 46.1888 3.79698 46.9308C4.62908 48.3162 6.05737 49.886 7.43848 50.7867C7.8674 51.0655 8.4979 51.6231 8.99973 51.6574C9.06407 51.666 9.11125 51.6574 9.15843 51.6446C10.1878 51.413 12.727 48.2776 12.727 47.4455C12.727 47.2996 12.6627 47.1924 12.5726 47.0809C12.3195 47.0037 12.1051 46.9565 11.9292 46.9565C10.8312 46.9479 9.45009 46.5834 8.39067 45.9014C7.5886 45.3781 6.38763 44.413 5.78286 43.6539C5.26816 43.0148 4.79207 42.2084 4.43178 41.4793C4.37602 41.3634 4.29881 41.2176 4.2259 41.0761L3.9471 40.4027C3.95568 40.3083 3.97713 40.3126 3.97284 40.2912H4.11867C4.4618 40.5828 8.3778 44.4516 9.89188 44.4774H12.1909C13.1474 44.4774 14.5842 43.9241 14.5842 42.5344C14.5842 41.3206 13.2288 41.1233 12.4053 41.1233C12.2595 41.1233 11.2215 41.342 10.9041 41.3592C10.7497 41.3677 9.87472 41.1233 9.87472 40.7715C9.87472 40.2654 11.1872 40.1839 11.496 40.1839C11.6419 40.1839 13.2331 40.5957 13.379 40.5957C13.9323 40.5957 14.7644 40.2654 14.7644 39.4162C14.7644 38.9529 14.0223 38.6484 13.5848 38.6484C13.0401 38.6484 12.4482 39.1502 11.8091 39.1502C11.6633 39.1502 11.0242 38.8457 10.8784 38.8457C10.7326 38.8457 9.76749 39.3004 9.50157 39.2918C9.26995 39.2875 8.56653 38.5798 8.41641 38.5798C8.26629 38.5798 7.81164 39.0087 7.6658 39.0087C7.51997 39.0087 7.47708 38.8414 7.37414 38.7942C7.41703 38.6913 7.49424 37.7906 8.08185 37.7906C8.22769 37.7906 8.75525 38.1766 8.90108 38.1766C9.73318 38.1766 9.64311 37.4689 10.3422 37.4689C11.1658 37.4689 11.2344 38.4683 11.8735 38.4683C12.3967 38.4683 12.5726 37.5247 13.3146 37.5247C13.9194 37.5247 14.5156 38.2324 14.8459 38.2324C15.1761 38.2324 15.5364 37.7606 16.1412 37.7606C16.287 37.7606 16.5015 38.0865 16.5615 38.271C16.613 38.4382 16.5615 38.6141 16.5615 38.7942C16.5615 38.9744 16.6301 39.1888 16.7245 39.2875C16.806 39.369 16.8189 39.4719 16.9647 39.4719H17.6638C18.4745 39.4719 20.5762 35.4315 20.6234 35.2686C20.7349 34.8654 20.8807 34.2006 20.8807 34.0547C20.8807 33.9089 20.9922 33.2569 20.9408 32.3176C20.8893 31.241 21.4726 30.4475 21.4726 29.3752C21.4726 29.2294 21.404 28.6632 21.3311 28.3673C21.241 28.0285 20.8936 27.7711 20.6791 27.8783C20.6019 27.9169 20.2931 28.4188 20.2931 28.6718C20.2931 28.8177 20.3403 29.3881 20.2159 29.6583C19.9371 30.276 18.6889 31.0566 18.1742 31.0566C18.0198 31.0566 17.7024 30.9622 17.7024 30.5247C17.7024 30.3789 17.9984 30.113 17.9984 29.9672C17.9984 29.7227 17.8011 29.7741 17.5223 29.6026C17.5223 29.6026 17.4108 29.5468 17.5223 29.3967C17.9212 29.2294 18.3287 29.1822 18.7404 29.0922C19.1522 29.0021 19.8813 28.0027 19.8813 27.5524C19.8813 27.3979 19.4696 26.9347 19.1179 26.9347C18.972 26.9347 19.0149 27.0119 19.0149 27.0119C19.0964 27.4194 18.8348 28.17 18.4788 28.4488C18.2643 28.6161 17.9383 28.7576 17.7925 28.7576C17.6467 28.7576 17.3765 28.7276 17.3121 28.7061C16.5101 28.4617 16.2913 27.814 16.2913 27.2564C16.2913 27.0634 16.3642 27.1363 16.2141 26.9347C16.0554 26.9776 15.1161 27.3979 15.1161 27.8183C15.1161 28.1485 16.1155 28.7018 16.1155 28.9378C16.1155 29.5468 15.1718 29.0621 15.1718 29.5854C15.1718 29.7312 15.5235 31.2282 15.5235 31.374V32.2704C15.5235 33.5872 16.4071 33.214 16.4071 34.415C16.4071 34.6595 15.8624 35.3586 15.678 35.4358C15.5021 35.5002 15.4163 35.6031 15.2705 35.7275C15.1504 35.8862 15.1675 35.9076 15.0432 36.1221C14.8416 36.4652 14.5756 36.4352 14.3269 36.388C13.7264 36.2722 13.4519 36.1693 12.9629 36.1693C12.8171 36.1693 12.4611 36.5639 12.3153 36.5639C12.1694 36.5639 11.955 36.4781 11.822 36.3366C11.7491 36.2636 11.496 35.4573 11.0542 35.4573C10.9084 35.4573 10.1063 35.8261 9.9605 35.8261C9.41578 35.8261 8.75525 35.1656 8.75525 34.6466C8.75525 34.608 8.75525 34.1319 9.1713 34.1319C9.47154 34.1319 9.3686 34.4922 9.66884 34.6466C10.0377 34.4064 10.5524 33.7631 10.6982 33.7631C10.8441 33.7631 10.9127 33.7716 11.0071 33.8317C11.2258 33.9646 11.5218 34.5651 11.5218 34.9383C11.5218 35.29 11.9335 35.586 12.2895 35.586C13.0315 35.586 13.469 35.0284 13.469 34.3207C13.469 34.1748 13.1731 33.1411 13.1731 32.9953C13.1731 32.8495 13.1731 32.9138 13.186 32.8495C13.1731 32.6693 13.1688 32.4892 13.1474 32.3777C13.1688 32.3262 13.3447 30.4004 13.3447 30.2545C13.3447 29.2466 12.8128 28.2729 12.8128 27.2221C12.8128 26.7889 12.89 25.648 13.2889 25.2705C14.091 24.5113 15.9182 23.572 17.3765 23.572C17.5223 23.572 18.4402 23.7822 18.8948 23.9966C19.0364 24.0567 19.4739 24.4084 19.6797 24.4556C19.98 24.2068 20.173 23.542 20.173 23.1603C20.173 21.822 18.4659 20.7969 18.4659 19.2743C18.4659 19.1284 18.7619 17.4771 18.7619 17.3313C18.7619 17.1855 18.7104 16.8766 18.6804 16.6493C18.5174 15.4912 17.1277 14.2688 16.1712 14.2688C16.0254 14.2688 13.6663 14.5047 13.5205 14.5047C12.0622 14.5047 11.1357 13.5611 9.54446 13.5611C9.39863 13.5611 7.9446 13.7584 7.18542 13.8099C3.9471 14.0372 2.45447 16.3962 2.45447 19.5917C2.45447 19.7375 2.53597 20.2779 2.47163 20.5567C2.09418 22.0451 0.974714 23.0659 0.974714 24.3955L1.15057 29.9586C1.03047 31.6271 -0.144756 30.7392 -0.144756 32.3133C-0.144756 32.4592 -0.0847092 33.2098 -0.0117931 33.6129C0.0310974 33.8574 0.185507 34.1191 0.288448 34.252C0.348495 34.3335 0.854618 34.578 1.00474 34.578C1.40792 34.578 1.13341 32.7551 1.43794 32.6479C1.86257 33.9561 1.92262 34.4708 2.0899 34.964C2.29149 35.869 2.70325 37.396 2.759 37.5633C2.85766 37.8592 2.96488 38.0522 3.05496 38.271C3.1965 38.6227 3.50961 39.1417 3.50961 39.2918H3.51819ZM21.9787 15.9673C21.8329 15.9673 21.6356 15.963 21.5412 16.0402C21.4941 16.0788 21.4683 16.1432 21.4769 16.2633C21.4941 16.4777 21.8501 16.7051 21.9573 16.7994C22.3004 17.1082 22.7122 17.46 22.9953 17.8417C23.4757 18.5108 23.7416 19.33 24.2563 19.9648C24.668 20.4667 24.9854 20.7412 25.3414 20.7412C25.4873 20.7412 25.513 20.5996 25.513 20.5996C25.5773 20.3509 25.5816 20.1793 25.5816 20.0335C25.5816 19.8876 25.5387 19.7203 25.5044 19.5874C25.2085 18.4508 24.6037 16.6879 23.1111 16.3019C22.7422 16.2075 22.1331 15.9716 21.9873 15.9716L21.9787 15.9673ZM20.5075 9.01889C20.0443 9.01889 18.5088 9.77378 18.3072 9.9239C17.6338 10.4343 17.3765 10.9576 17.1663 11.8283C17.1062 12.0728 17.1491 12.3001 17.1963 12.4717C17.2607 12.7076 17.4151 12.9606 17.5566 13.1322C17.7024 13.3081 18.007 13.4582 18.1056 13.6555C18.2986 14.0458 18.2043 14.5519 18.4402 14.8393C18.9034 15.414 19.2122 15.4398 19.654 15.4398C20.6491 15.4398 20.8164 14.4961 22.2447 14.4961C22.3905 14.4961 22.8795 14.612 23.1454 14.7449C23.3255 14.835 23.6386 15.3068 23.7587 15.1395C23.8831 14.9637 23.8917 14.7621 23.8917 14.6162C23.8917 13.7198 22.3304 12.8491 21.3868 12.8491C21.241 12.8491 20.3188 12.9907 19.7913 13.1022C19.5039 13.1622 19.0021 13.381 18.8562 13.381C18.6418 13.381 18.5302 13.1236 18.5302 12.8791C18.5302 12.7333 18.6461 12.2315 18.7662 11.8798C18.8862 11.5323 20.2759 9.65797 20.8678 9.46925C20.9322 9.43065 20.945 9.38347 20.9493 9.31484C20.9493 9.24193 20.9365 9.20761 20.8678 9.14327C20.7349 9.04891 20.6491 9.02318 20.5033 9.02318L20.5075 9.01889ZM5.46118 8.31118C4.98937 8.31118 3.80556 8.81301 3.35091 9.16472C3.18363 9.2934 2.81476 9.44781 2.81476 9.7266C2.81476 9.87243 2.85765 9.92819 2.88339 9.95393C3.03351 9.97966 4.78349 9.90246 4.78349 9.90246C4.95506 9.95822 5.22956 10.1984 5.22956 10.3442C5.22956 10.6917 4.15727 11.408 4.01144 11.4723C3.74122 11.5967 3.32517 11.5752 3.06782 11.7082C1.49799 12.5317 0.0568333 13.7112 -0.989721 15.0366C-1.23421 15.3454 -1.56018 15.9716 -1.59878 16.1132C-1.64167 16.2633 -1.65883 16.3791 -1.65883 16.5249C-1.65883 16.7608 -1.38004 17.0825 -0.95112 17.0825C-0.805288 17.0825 -0.367794 16.8423 -0.213383 16.6579C-0.00750351 16.4134 0.146906 16.066 0.146906 15.7572C0.146906 14.6548 0.627291 13.7841 1.87544 13.7841C2.02127 13.7841 2.61317 13.96 2.759 13.96C2.90484 13.96 2.89626 13.4153 3.06354 13.1837C3.71978 12.2572 4.54758 11.3393 5.55983 11.0734C5.61559 11.0734 5.7271 11.0562 6.4391 11.0734C7.02243 11.1892 7.68296 11.3307 8.25771 11.5581C8.45072 11.631 9.48441 12.4888 9.88759 12.4888C10.0034 12.4888 10.3594 12.3473 10.3594 12.1371C10.3594 11.4766 8.65231 11.2107 8.65231 10.5458C8.65231 10.2284 9.19704 10.1941 9.26995 10.1941C10.1321 10.1941 11.8091 11.052 12.3453 11.6567C12.4482 11.7682 12.83 13.0207 13.1559 13.0207C13.4219 13.0207 13.7736 12.5875 13.7736 12.313C13.7736 12.1671 13.8336 11.7511 13.8336 11.6053C13.8336 11.4594 13.7693 11.0434 13.6277 10.8504C13.2074 10.2842 11.8735 9.42636 11.2687 9.42636C11.2473 9.42636 9.69887 9.72231 9.44152 9.72231C9.29568 9.72231 8.47217 9.57648 8.03896 9.4092C7.7087 9.28482 7.42561 9.02318 7.15968 8.86019C6.84229 8.66718 6.14315 8.37123 5.99732 8.37123C5.85149 8.37123 5.61559 8.31118 5.46547 8.31118H5.46118ZM-17.7089 59.5538C-17.7432 52.2837 -9.92833 51.147 -1.65883 46.8064L-1.72746 46.622C-1.79609 45.7899 -4.7556 41.6894 -4.78992 40.6729C-4.85855 38.7428 -1.04977 36.2122 -1.01546 35.7275C-1.35859 35.2771 -0.766685 34.8225 -1.06693 34.3378C-1.40577 34.3207 -2.7011 35.6975 -4.37816 35.6975C-8.58154 35.6975 -8.41855 30.6792 -6.67286 28.0713C-9.07908 23.2375 -6.26968 23.3147 -6.43696 22.0665C-6.60852 20.7883 -6.9731 19.819 -6.96881 18.4593C-6.96881 18.4593 -6.99884 17.7259 -6.89161 17.46C-6.39835 16.229 -5.36038 16.6236 -5.37753 15.1181C-5.40756 12.5532 -3.2158 11.4937 -1.29425 10.4729C-0.929674 10.2799 -1.24707 8.08814 0.764545 6.97725C3.11072 5.68192 6.24609 4.58819 8.55366 6.36819C10.6296 5.34308 13.3275 5.03855 15.6179 4.89701C17.3207 4.78978 18.0799 5.54896 19.0149 6.80568L19.2465 7.18742C20.9064 6.07224 21.9744 6.50973 22.6307 8.19537C25.3843 6.15373 30.1024 11.4037 28.3739 15.1438L28.4725 15.3583C30.6686 15.9244 30.9388 20.4195 31.0803 22.1223C31.1961 23.4948 30.3941 24.5414 30.3126 25.7166C30.304 25.8667 30.5442 26.0297 30.6385 26.1069C31.6551 26.9519 31.9253 27.1106 32.2556 28.4231C32.5987 29.7913 32.5215 31.6271 31.6379 32.8366C29.8107 35.3286 28.4725 34.3593 26.1092 33.6944C25.8733 34.0161 25.1613 34.9683 25.127 35.3157C32.3027 39.0001 30.9345 38.5541 27.9278 45.4596C27.8506 45.6355 27.3059 46.8622 27.3059 46.9479C27.3059 47.0337 27.486 47.1195 27.5418 47.1538C28.8414 47.9087 37.7843 51.4087 40.405 53.6905C43.0171 55.9595 43.0514 59.5709 43.0514 59.5709L43.0814 61.085" fill="#323637"/>
<path d="M6.87159 26.6258C6.52417 26.6258 6.33974 26.8017 6.33974 27.1577C6.33974 27.3507 6.41265 27.6895 6.84157 27.6895C7.07747 27.6895 7.28335 27.3721 7.28335 27.1019C7.28335 26.9904 7.2662 26.6301 6.87159 26.6301V26.6258ZM5.48619 24.3311C5.18595 24.3912 4.87284 24.4298 4.64981 24.5241C4.03217 24.8029 3.27728 25.6994 3.27728 26.3341C3.27728 26.54 3.45313 26.866 3.80913 26.866C4.28094 26.866 4.63265 25.9824 5.10446 25.9824C5.25029 25.9824 5.22884 25.9739 5.2846 26.0253C5.2846 26.1926 5.2846 26.3685 5.29318 26.5658C6.02663 26.4028 6.3526 26.2484 6.97882 26.3299C6.9874 26.2484 7.04745 26.2484 7.04745 26.1025C7.04745 25.9567 6.93164 25.9567 6.93164 25.8066C6.93164 25.6565 6.92306 25.738 6.97024 25.6865H7.36485C7.51068 25.6865 7.90099 26.0982 8.05111 26.0982C8.20123 26.0982 8.22697 25.9524 8.22697 25.8023C8.22697 25.0002 6.99598 24.4769 6.37405 24.3311C6.18962 24.3054 5.97087 24.2925 5.48619 24.3311ZM10.7018 29.3366C10.7018 29.684 10.9978 31.0436 10.9978 31.1938C10.9978 31.494 11.0364 32.0001 10.7447 32.399C10.4874 32.3647 9.58663 30.9235 9.58663 30.4003C9.58663 29.6282 10.2943 29.5038 10.2943 28.4573C10.2943 28.2643 10.2557 28.1056 10.0584 28.1056C9.91261 28.1056 9.28639 28.8133 9.13627 28.8133C9.13627 28.8133 8.81887 28.9119 8.66446 28.8133C8.60012 28.7704 8.52292 28.6675 8.52292 28.6675C8.77169 28.26 9.23063 27.711 9.23063 27.3721C9.23063 27.1362 8.6087 26.673 8.44143 26.6944C8.08542 26.8102 8.35564 27.3164 8.32562 27.5523C8.2527 28.0841 7.55357 28.8133 7.02171 28.8133C6.76436 28.8133 6.10383 28.5259 5.95371 28.3715C5.33607 27.7153 5.63631 27.6209 5.63631 27.0461C5.63631 26.9003 5.57627 26.9561 5.58484 26.8617C5.54624 26.8703 5.54624 26.8102 5.40041 26.8102C5.0101 26.8102 4.63265 27.4279 4.63265 27.6638C4.63265 28.1141 4.92431 28.6803 5.57198 28.8304C5.37896 29.2379 5.246 29.2851 4.95863 29.2851C3.84773 29.2851 3.9807 27.8139 3.48744 27.8139C3.34161 27.8139 3.19149 27.9297 3.04566 27.9297C2.89983 27.9297 2.61246 27.6595 2.48378 27.548C2.2393 27.3507 2.28219 27.1276 2.28219 26.9861C2.28219 24.9487 3.94639 23.7692 6.25824 23.6277C6.73005 23.6877 6.78581 23.6277 6.85015 23.6277C7.32195 23.6877 7.90528 23.7178 8.3342 23.9408C9.07193 24.314 10.17 25.0002 10.7962 25.7594C10.8991 25.8838 11.1179 26.7931 11.1179 27.0719" fill="#323637"/>
</g>
</svg>
